<svg width="1680" height="967" viewBox="0 0 1680 967" fill="none" xmlns="http://www.w3.org/2000/svg">
<g clip-path="url(#clip0_324_542)">
<path fill-rule="evenodd" clip-rule="evenodd" d="M163.358 565.692C185.487 518.419 212.142 493.957 241.275 485.428C276.276 475.182 314.277 488.118 351.236 510.851C388.234 533.608 424.513 566.385 456.196 596.369C461.805 601.677 467.267 606.895 472.564 611.955L472.582 611.973C482.261 621.218 491.388 629.938 499.856 637.722C503.048 640.656 506.139 643.451 509.125 646.085C512.177 641.91 515.38 637.664 518.898 633.48C528.845 621.653 541.331 610.302 560.276 602.147C579.202 594 604.472 589.086 639.933 589.96C669.742 590.694 707.905 596.648 750.174 603.242L750.176 603.242C758.151 604.486 766.272 605.753 774.512 607.012C775.27 607.128 776.029 607.244 776.789 607.36C781.82 588.858 785.973 567.563 789.075 543.135C797.294 478.42 823.135 443.273 858.207 427.562C893.14 411.914 936.821 415.75 980.347 428.005C1023.92 440.274 1067.61 461.06 1102.74 479.661C1118.8 488.163 1133.08 496.218 1144.75 502.798C1145.85 503.417 1146.93 504.023 1147.98 504.615C1155.22 508.696 1161.28 512.089 1165.99 514.551C1174.06 500.213 1180.97 484.102 1186.55 466.028C1205.81 403.625 1221.12 359.067 1234.74 327.914C1248.34 296.818 1260.35 278.822 1273.14 269.843C1286.1 260.747 1299.62 261.053 1315.62 265.762C1323.6 268.11 1332.27 271.572 1341.85 275.551C1343.77 276.351 1345.74 277.171 1347.74 278.009L1347.75 278.013C1355.73 281.352 1364.35 284.959 1373.79 288.559C1392.61 295.739 1406.33 297.711 1417.23 295.914C1428.08 294.126 1436.34 288.572 1444.18 280.24C1450.54 273.483 1456.55 264.998 1463.41 255.301L1463.41 255.3C1465.06 252.96 1466.77 250.55 1468.54 248.077C1477.62 235.398 1488.37 221.196 1502.97 206.745C1515.19 194.653 1531.16 189.9 1549.02 189.681C1556.32 173.396 1564.78 158.917 1575.62 146.062C1604.67 111.591 1650.58 88.9538 1735.87 73.8224L1735.97 74.3988L1736.13 74.3719L1760.95 226.831L1760.86 227.156C1758.52 235.309 1753.51 240.167 1746.46 242.386C1739.54 244.564 1730.77 244.168 1720.82 242.218C1703.49 238.821 1681.92 230.557 1658.99 221.777C1655.59 220.472 1652.15 219.156 1648.69 217.842C1621.88 207.654 1593.77 197.605 1568.38 194.045C1562.4 193.206 1556.58 192.73 1550.99 192.695C1540.67 216.195 1532.63 243.592 1523.23 275.635C1522.01 279.786 1520.77 284.014 1519.5 288.322C1516.21 299.458 1512.99 311.356 1509.64 323.697L1509.64 323.702C1503.65 345.784 1497.28 369.285 1489.48 392.388C1477.31 428.454 1461.56 463.835 1438.11 491.954C1414.62 520.11 1383.42 540.963 1340.43 547.956C1297.49 554.942 1242.91 548.076 1172.69 521.075C1171.22 520.513 1169.38 519.661 1167.18 518.558C1147.43 552.574 1121.08 576.596 1090.42 593.12C1046.15 616.975 993.008 625.141 938.018 625.384C884.755 625.619 829.636 618.421 778.988 610.75C770.814 639.906 760.395 662.166 748.353 678.803C728.305 706.502 703.798 718.555 677.912 720.886C652.105 723.21 625.051 715.865 599.807 705.033C574.549 694.195 550.968 679.806 532.093 667.911C525.512 663.763 517.965 657.791 509.623 650.539C509.117 651.239 508.613 651.937 508.11 652.633L507.883 652.948C503.716 658.72 499.632 664.36 495.177 669.477C486.229 679.755 475.721 688.001 459.732 691.372C451.516 693.104 442.621 691.308 433.304 687.087C423.982 682.864 414.111 676.158 403.867 667.882C386.216 653.62 367.26 634.525 347.908 615.032L347.907 615.031L347.883 615.007C344.794 611.895 341.695 608.773 338.589 605.659C315.971 582.979 293.002 560.706 270.924 545.509C248.79 530.275 227.945 522.429 209.439 527.89C199.363 530.864 192.873 537.04 185.874 545.134C184.484 546.741 183.074 548.425 181.613 550.17L181.612 550.171C177.135 555.516 172.179 561.434 165.854 567.486C161.49 576.856 157.295 587.149 153.286 598.425C59.8977 861.124 -79.3711 913.46 -146.111 903.637L-145.83 901.727L-246.704 761.95L-246.677 761.419L-245.168 761.496C-246.677 761.419 -246.677 761.416 -246.677 761.416L-246.677 761.412L-246.676 761.403L-246.675 761.381C-246.674 761.364 -246.672 761.343 -246.67 761.317C-246.666 761.266 -246.659 761.197 -246.649 761.111C-246.629 760.939 -246.595 760.696 -246.538 760.381C-246.424 759.751 -246.218 758.834 -245.847 757.615C-245.104 755.176 -243.699 751.529 -241.044 746.558C-235.735 736.621 -225.412 721.369 -205.333 699.878C-185.26 678.395 -165.408 660.002 -134.529 645.824C-103.683 631.662 -61.9396 621.754 1.87173 617.015C93.4228 610.217 134.32 590.354 157.56 570.866C159.623 569.136 161.548 567.409 163.358 565.692Z" fill="#826EF7"/>
<path d="M-254.588 719.9C-254.588 719.9 -253.682 702.161 -213.649 659.314C-173.616 616.468 -134.873 586.39 -7.43618 576.926C176.011 563.304 157.567 497.248 199.592 484.846C276.396 462.179 387.711 661.429 450.001 648.298C512.29 635.166 489.243 546.396 630.476 549.875C771.71 553.354 1101.52 674.468 1178.57 424.878C1255.62 175.288 1269.15 212.253 1363.83 248.375C1439.58 277.273 1436.58 223.676 1494.62 166.223C1558.93 102.552 1732.36 246.549 1749.98 185.144" stroke="black" stroke-width="3"/>
<path d="M-155.311 860.546C-89.6179 870.215 49.1619 818.721 142.443 556.323C239.423 283.522 448.002 577.471 523.479 625.037C598.956 672.602 748.452 759.237 781.155 501.73C813.858 244.222 1125.87 463.482 1163.81 478.069C1444.13 585.844 1471.8 371.075 1508.63 246.298C1544.76 123.905 1556.41 63.9309 1726.71 33.7143" stroke="black" stroke-width="3"/>
</g>
<defs>
<clipPath id="clip0_324_542">
<rect width="1680" height="967" fill="white"/>
</clipPath>
</defs>
</svg>
