<svg width="108" height="40" viewBox="0 0 108 40" fill="none" xmlns="http://www.w3.org/2000/svg">
<path d="M57.9 22.64C57.72 25.84 56.92 27.2 54.86 27.2C52.92 27.2 52.34 26.2 52.34 24.78C52.34 24.16 52.44 23.04 52.44 22.1C52.44 20.82 52.44 19.8 52.36 18.62C51.92 18.64 51.46 18.64 51 18.66V18.34C52.94 17.66 53.82 16.98 54.98 15.12L55.28 15.16C55.22 15.78 55.16 16.48 55.14 17.22H58.12L57.6 18.74C56.78 18.7 55.94 18.66 55.12 18.64C55.1 19.46 55.1 20.32 55.1 21.14C55.1 22.1 55.08 23.16 55.14 24.14C55.2 25.04 55.56 25.36 56.26 25.36C57.22 25.36 57.46 24.44 57.62 22.62L57.9 22.64ZM59.8219 21.5C59.8219 18.92 59.7619 18.82 59.2619 18.68L58.6219 18.52V18.16C59.9819 17.88 61.5019 17.46 62.3819 17.06L62.6219 17.16C62.6019 18.8 62.5419 20.56 62.5419 22.36C62.5419 24.6 62.8819 25.2 64.3619 25.2C65.3219 25.2 66.3219 24.7 66.3219 23.4C66.3219 18.96 66.2819 18.88 65.6219 18.66L64.8419 18.54V18.16C66.5619 17.82 67.8419 17.46 68.8819 16.96L69.1219 17.04C69.0619 18.52 69.0619 19.14 69.0619 21.44C69.0619 25.8 69.1019 26.16 69.8019 26.42L70.4019 26.62V27H66.4819C66.4819 25.96 66.5019 25.04 66.5019 24.18H66.3619C65.9419 25.86 64.3019 27.2 62.3619 27.2C60.6819 27.2 59.7819 26.34 59.7819 24.68C59.7819 23.58 59.8219 22.32 59.8219 21.5ZM74.5303 17.06L74.7703 17.16L74.7503 19.98L74.8903 20C75.2303 18.56 76.8303 17.02 78.8903 17.02C80.5303 17.02 81.4703 17.88 81.4703 19.5C81.4703 20.66 81.4303 22 81.4303 23.16C81.4303 26.16 81.4703 26.3 82.1703 26.46L82.7103 26.56V27H77.2103V26.56L78.0503 26.44C78.6903 26.3 78.6903 25.96 78.6903 22.38C78.6903 19.54 78.3903 19.02 76.9503 19.02C75.9103 19.02 74.9103 19.48 74.9103 20.88C74.9103 26.18 74.9503 26.24 75.5903 26.4L76.5303 26.56V27H70.8703V26.56L71.3103 26.46C72.1503 26.24 72.1703 26.06 72.1703 22.74C72.1703 19.06 72.1703 18.92 71.6103 18.76L70.8703 18.52V18.16C72.1503 17.9 73.6303 17.46 74.5303 17.06ZM87.8964 17.6C86.7564 17.6 86.2164 18.36 86.1764 20.9L89.5764 20.6C89.9164 20.56 90.0364 20.38 90.0364 20.06C90.0364 18.64 89.0764 17.6 87.8964 17.6ZM88.8964 17.04C91.6564 17.04 92.6964 18.36 92.6564 20.7L90.1364 21.14L86.1764 21.06V21.24C86.1764 24.22 87.3964 25.1 89.2564 25.1C90.8164 25.1 91.8164 24.5 92.4564 22.76L92.7164 23C92.0764 25.28 91.1164 27.22 88.0564 27.22C85.2364 27.22 83.2764 25.58 83.2764 22.12C83.2764 18.94 85.3964 17.04 88.8964 17.04ZM98.0889 17.68C96.8889 17.7 96.3489 18.58 96.3489 20.92C96.3489 23.78 97.6089 25.08 99.4489 25.08C100.969 25.08 101.829 24.58 102.389 23L102.649 23.22C102.109 25.28 101.169 27.2 98.1489 27.2C95.4689 27.2 93.5889 25.58 93.5889 22.3C93.5889 19.08 96.1889 17.04 99.4289 17.04C101.049 17.04 102.129 17.42 102.549 17.64C102.389 18.72 102.289 20.04 102.229 21.64H101.829L101.349 20.32C100.649 18.48 99.4489 17.68 98.0889 17.68ZM105.227 27.14C104.227 27.14 103.547 26.58 103.547 25.56C103.547 24.22 104.367 23.6 105.607 23.6C106.647 23.6 107.327 24.12 107.327 25.16C107.327 26.48 106.487 27.14 105.227 27.14Z" fill="black"/>
<rect x="0.5" y="0.5" width="39" height="39" rx="9.5" fill="url(#paint0_linear_113_530)" stroke="black"/>
<path fill-rule="evenodd" clip-rule="evenodd" d="M20 34C27.732 34 34 27.732 34 20C34 12.268 27.732 6 20 6C12.268 6 6 12.268 6 20C6 27.732 12.268 34 20 34ZM20 22.2106C21.2209 22.2106 22.2106 21.2209 22.2106 20C22.2106 18.7792 21.2209 17.7895 20 17.7895C18.7792 17.7895 17.7895 18.7792 17.7895 20C17.7895 21.2209 18.7792 22.2106 20 22.2106Z" fill="white"/>
<circle cx="19.9999" cy="19.9999" r="3.92105" stroke="black"/>
<path d="M20 11C16.0685 11 12.7257 13.5209 11.5 17.0345" stroke="black" stroke-linecap="round"/>
<path d="M9 20C9 13.9249 13.9249 9 20 9" stroke="black" stroke-linecap="round"/>
<circle cx="20.0001" cy="20.0001" r="1.71053" stroke="black"/>
<circle cx="20" cy="20" r="13.5" stroke="black"/>
<defs>
<linearGradient id="paint0_linear_113_530" x1="20" y1="0" x2="20" y2="40" gradientUnits="userSpaceOnUse">
<stop stop-color="#826EF7"/>
<stop offset="1" stop-color="#EE8F57"/>
</linearGradient>
</defs>
</svg>
