<svg width="24" height="24" viewBox="0 0 24 24" fill="none" xmlns="http://www.w3.org/2000/svg">
<path d="M20.9061 5.34377C19.8872 4.32738 18.5072 3.75582 17.0681 3.75406C15.6289 3.7523 14.2475 4.3205 13.2261 5.33439L11.9999 6.47345L10.7727 5.33064C9.75152 4.31233 8.36765 3.74139 6.92553 3.74341C5.4834 3.74544 4.10115 4.32026 3.08284 5.34142C2.06453 6.36259 1.49359 7.74645 1.49561 9.18858C1.49763 10.6307 2.07245 12.013 3.09362 13.0313L11.4702 21.5306C11.54 21.6015 11.6232 21.6578 11.7149 21.6962C11.8066 21.7346 11.9051 21.7544 12.0046 21.7544C12.104 21.7544 12.2025 21.7346 12.2942 21.6962C12.386 21.6578 12.4691 21.6015 12.5389 21.5306L20.9061 13.0313C21.9251 12.0116 22.4976 10.6291 22.4976 9.18752C22.4976 7.74596 21.9251 6.3634 20.9061 5.34377ZM19.8421 11.9775L11.9999 19.9313L4.153 11.97C3.41453 11.2316 2.99967 10.23 2.99967 9.18564C2.99967 8.1413 3.41453 7.13973 4.153 6.40127C4.89146 5.6628 5.89303 5.24794 6.93737 5.24794C7.98171 5.24794 8.98328 5.6628 9.72174 6.40127L9.74049 6.42002L11.4889 8.04658C11.6277 8.17574 11.8103 8.24754 11.9999 8.24754C12.1895 8.24754 12.372 8.17574 12.5108 8.04658L14.2592 6.42002L14.278 6.40127C15.017 5.6633 16.0188 5.24911 17.0631 5.24982C18.1075 5.25052 19.1088 5.66606 19.8467 6.40502C20.5847 7.14398 20.9989 8.14583 20.9982 9.19017C20.9975 10.2345 20.582 11.2358 19.843 11.9738L19.8421 11.9775Z" fill="black"/>
</svg>
