<svg width="24" height="24" viewBox="0 0 24 24" fill="none" xmlns="http://www.w3.org/2000/svg">
<path d="M20.9064 5.34377C19.8874 4.32738 18.5075 3.75582 17.0683 3.75406C15.6291 3.7523 14.2478 4.3205 13.2264 5.33439L12.0001 6.47345L10.7729 5.33064C9.75176 4.31233 8.3679 3.74139 6.92577 3.74341C5.48365 3.74544 4.10139 4.32026 3.08308 5.34142C2.06478 6.36259 1.49383 7.74645 1.49585 9.18858C1.49788 10.6307 2.0727 12.013 3.09386 13.0313L11.4704 21.5306C11.5402 21.6015 11.6234 21.6578 11.7151 21.6962C11.8069 21.7346 11.9053 21.7544 12.0048 21.7544C12.1043 21.7544 12.2027 21.7346 12.2945 21.6962C12.3862 21.6578 12.4694 21.6015 12.5392 21.5306L20.9064 13.0313C21.9254 12.0116 22.4978 10.6291 22.4978 9.18752C22.4978 7.74596 21.9254 6.3634 20.9064 5.34377Z" fill="black"/>
</svg>
