<svg width="16" height="16" viewBox="0 0 16 16" fill="none" xmlns="http://www.w3.org/2000/svg">
<path d="M14.525 7.15557L5.52 1.64682C5.36818 1.55385 5.19429 1.5031 5.0163 1.49981C4.83831 1.49651 4.66266 1.54079 4.5075 1.62807C4.35382 1.714 4.2258 1.83931 4.1366 1.99112C4.04741 2.14292 4.00026 2.31575 4 2.49182V13.5081C4.00116 13.7722 4.10715 14.025 4.29466 14.211C4.48218 14.397 4.73589 14.5009 5 14.4999C5.18435 14.4999 5.36511 14.4491 5.5225 14.3531L14.525 8.84432C14.6697 8.75612 14.7893 8.63219 14.8723 8.48442C14.9553 8.33666 14.9989 8.17004 14.9989 8.00057C14.9989 7.8311 14.9553 7.66448 14.8723 7.51672C14.7893 7.36896 14.6697 7.24502 14.525 7.15682V7.15557Z" fill="white"/>
</svg>
